<svg width="21" height="17" viewBox="0 0 21 17" fill="none" xmlns="http://www.w3.org/2000/svg">
<path d="M19.3333 1.00838C18.5353 1.57128 17.6518 2.0018 16.7167 2.28338C16.2148 1.70631 15.5478 1.29729 14.8059 1.11165C14.0639 0.926013 13.2829 0.972709 12.5684 1.24542C11.8539 1.51814 11.2404 2.00371 10.8108 2.63648C10.3813 3.26924 10.1564 4.01866 10.1667 4.78338V5.61671C8.70219 5.65469 7.25106 5.32989 5.94251 4.67125C4.63395 4.01261 3.5086 3.04058 2.66667 1.84171C2.66667 1.84171 -0.666666 9.34171 6.83333 12.675C5.11711 13.84 3.07263 14.4242 1 14.3417C8.5 18.5084 17.6667 14.3417 17.6667 4.75838C17.6659 4.52626 17.6436 4.29471 17.6 4.06671C18.4505 3.22796 19.0507 2.16897 19.3333 1.00838Z" stroke="#4DF6FF" stroke-width="2" stroke-linecap="round" stroke-linejoin="round"/>
</svg>
