<svg width="25" height="18" viewBox="0 0 25 18" fill="none" xmlns="http://www.w3.org/2000/svg">
<path d="M22.7906 3.67C22.6718 3.19541 22.4299 2.76057 22.0892 2.40941C21.7486 2.05824 21.3213 1.80318 20.8506 1.67C19.1306 1.25 12.2506 1.25 12.2506 1.25C12.2506 1.25 5.37057 1.25 3.65057 1.71C3.17982 1.84318 2.75255 2.09824 2.41192 2.44941C2.07129 2.80057 1.82936 3.23541 1.71057 3.71C1.39579 5.45556 1.24181 7.22631 1.25057 9C1.23935 10.787 1.39334 12.5713 1.71057 14.33C1.84153 14.7898 2.08888 15.2081 2.42872 15.5445C2.76855 15.8808 3.18939 16.1238 3.65057 16.25C5.37057 16.71 12.2506 16.71 12.2506 16.71C12.2506 16.71 19.1306 16.71 20.8506 16.25C21.3213 16.1168 21.7486 15.8618 22.0892 15.5106C22.4299 15.1594 22.6718 14.7246 22.7906 14.25C23.1029 12.5176 23.2569 10.7603 23.2506 9C23.2618 7.21295 23.1078 5.4287 22.7906 3.67Z" stroke="#4DF6FF" stroke-width="2.5" stroke-linecap="round" stroke-linejoin="round"/>
<path d="M10.0006 12.27L15.7506 9L10.0006 5.73V12.27Z" stroke="#4DF6FF" stroke-width="2.5" stroke-linecap="round" stroke-linejoin="round"/>
</svg>
