<svg width="23" height="22" viewBox="0 0 23 22" fill="none" xmlns="http://www.w3.org/2000/svg">
<path d="M15.25 7.25C16.8413 7.25 18.3674 7.88214 19.4926 9.00736C20.6179 10.1326 21.25 11.6587 21.25 13.25V20.25H17.25V13.25C17.25 12.7196 17.0393 12.2109 16.6642 11.8358C16.2891 11.4607 15.7804 11.25 15.25 11.25C14.7196 11.25 14.2109 11.4607 13.8358 11.8358C13.4607 12.2109 13.25 12.7196 13.25 13.25V20.25H9.25V13.25C9.25 11.6587 9.88214 10.1326 11.0074 9.00736C12.1326 7.88214 13.6587 7.25 15.25 7.25Z" stroke="#4DF6FF" stroke-width="2.5" stroke-linecap="round" stroke-linejoin="round"/>
<path d="M5.25 8.25H1.25V20.25H5.25V8.25Z" stroke="#4DF6FF" stroke-width="2.5" stroke-linecap="round" stroke-linejoin="round"/>
<path d="M3.25 5.25C4.35457 5.25 5.25 4.35457 5.25 3.25C5.25 2.14543 4.35457 1.25 3.25 1.25C2.14543 1.25 1.25 2.14543 1.25 3.25C1.25 4.35457 2.14543 5.25 3.25 5.25Z" stroke="#4DF6FF" stroke-width="2.5" stroke-linecap="round" stroke-linejoin="round"/>
</svg>
