<svg width="30" height="27" viewBox="0 0 30 27" fill="none" xmlns="http://www.w3.org/2000/svg">
<g filter="url(#filter0_d_15_461)">
<path d="M23.8333 3.33333V8.33333M23.8333 8.33333H18.8333M23.8333 8.33333L19.9667 4.7C19.071 3.80392 17.963 3.14934 16.746 2.79731C15.529 2.44528 14.2426 2.40729 13.0069 2.68688C11.7712 2.96647 10.6265 3.55452 9.67955 4.39618C8.73261 5.23783 8.01431 6.30565 7.59167 7.5M5.5 16.6667V11.6667M5.5 11.6667H10.5M5.5 11.6667L9.36667 15.3C10.2623 16.1961 11.3703 16.8507 12.5873 17.2027C13.8044 17.5547 15.0907 17.5927 16.3264 17.3131C17.5621 17.0335 18.7068 16.4455 19.6538 15.6038C20.6007 14.7622 21.319 13.6943 21.7417 12.5" stroke="#B3B3B3" stroke-width="3" stroke-linecap="round" stroke-linejoin="round" shape-rendering="crispEdges"/>
</g>
<defs>
<filter id="filter0_d_15_461" x="-0.5" y="0" width="31" height="29" filterUnits="userSpaceOnUse" color-interpolation-filters="sRGB">
<feFlood flood-opacity="0" result="BackgroundImageFix"/>
<feColorMatrix in="SourceAlpha" type="matrix" values="0 0 0 0 0 0 0 0 0 0 0 0 0 0 0 0 0 0 127 0" result="hardAlpha"/>
<feOffset dx="2" dy="6"/>
<feGaussianBlur stdDeviation="2"/>
<feColorMatrix type="matrix" values="0 0 0 0 0 0 0 0 0 0 0 0 0 0 0 0 0 0 0.33 0"/>
<feBlend mode="normal" in2="BackgroundImageFix" result="effect1_dropShadow_15_461"/>
<feBlend mode="normal" in="SourceGraphic" in2="effect1_dropShadow_15_461" result="shape"/>
</filter>
</defs>
</svg>
