<?xml version="1.0" encoding="UTF-8" standalone="no"?>
<!-- Created with Inkscape (http://www.inkscape.org/) -->

<svg
   width="210mm"
   height="297mm"
   viewBox="0 0 210 297"
   version="1.1"
   id="svg1"
   sodipodi:docname="Marsai.svg"
   inkscape:version="1.4.2 (f4327f4, 2025-05-13)"
   xmlns:inkscape="http://www.inkscape.org/namespaces/inkscape"
   xmlns:sodipodi="http://sodipodi.sourceforge.net/DTD/sodipodi-0.dtd"
   xmlns="http://www.w3.org/2000/svg"
   xmlns:svg="http://www.w3.org/2000/svg">
  <sodipodi:namedview
     id="namedview1"
     pagecolor="#ffffff"
     bordercolor="#000000"
     borderopacity="0.25"
     inkscape:showpageshadow="2"
     inkscape:pageopacity="0.0"
     inkscape:pagecheckerboard="0"
     inkscape:deskcolor="#d1d1d1"
     inkscape:document-units="mm"
     inkscape:zoom="1.8519888"
     inkscape:cx="347.73428"
     inkscape:cy="413.33942"
     inkscape:window-width="1920"
     inkscape:window-height="974"
     inkscape:window-x="-11"
     inkscape:window-y="-11"
     inkscape:window-maximized="1"
     inkscape:current-layer="layer2" />
  <defs
     id="defs1" />
  <g
     inkscape:groupmode="layer"
     id="layer2"
     inkscape:label="Calque 2">
    <path
       style="fill:#fdff6b;fill-opacity:1;stroke:#000000;stroke-width:0;stroke-linecap:butt;stroke-dasharray:none;stroke-dashoffset:0;paint-order:normal"
       d="m 141.63414,124.24505 c 0.42877,38.90841 -85.407476,35.0647 -85.915306,-1.1534 1.266443,-70.176054 88.121556,-66.906209 85.915306,1.1534 z"
       id="path44"
       sodipodi:nodetypes="ccc" />
  </g>
  <g
     inkscape:label="Calque 1"
     inkscape:groupmode="layer"
     id="layer1">
    <path
       style="fill:#be6422;fill-opacity:1;stroke:#000000;stroke-width:1;stroke-linecap:butt;stroke-dasharray:none;stroke-dashoffset:0;paint-order:normal"
       d="m 74.882682,138.5427 -0.09921,-42.990202 15.47776,33.380312 23.876368,-43.060606 2.65955,43.367366"
       id="path1"
       sodipodi:nodetypes="ccccc" />
    <path
       style="fill:#803110;fill-opacity:1;stroke:#000000;stroke-width:1;stroke-linecap:butt;stroke-dasharray:none;stroke-dashoffset:0;paint-order:normal"
       d="m 72.492204,140.60855 -0.167058,-5.66019 5.131429,-28.76365 32.962325,7.32376"
       id="path1-8"
       sodipodi:nodetypes="cccc" />
    <path
       style="fill:#be6422;fill-opacity:0;stroke:#000000;stroke-width:1;stroke-linecap:butt;stroke-dasharray:none;stroke-dashoffset:0;paint-order:normal"
       d="m 73.86091,95.862033 5.571713,-3.428746 10.571969,22.572573 24.715548,-33.573136 3.85734,57.431496 -5.71458,-0.28572"
       id="path7" />
    <path
       style="fill:#be6422;fill-opacity:0;stroke:#000000;stroke-width:1;stroke-linecap:butt;stroke-dasharray:none;stroke-dashoffset:0;paint-order:normal"
       d="m 101.29088,108.57697 11.71488,5.00025"
       id="path8" />
    <path
       style="fill:#00ffff;fill-opacity:0;stroke:#000000;stroke-width:2.04079;stroke-linecap:butt;stroke-dasharray:none;stroke-dashoffset:0;paint-order:normal"
       d="m 433.18295,522.00963 -4.45467,-0.18191 0.012,-16.31195 c 0.007,-8.97158 0.36568,-52.39479 0.79794,-96.49603 0.43227,-44.10124 0.79134,-81.29746 0.79795,-82.65828 0.0116,-2.38612 -0.0591,-2.49604 -1.9854,-3.08723 -1.09856,-0.33716 -2.03431,-0.56017 -2.07945,-0.49557 -0.0451,0.0646 -19.84333,35.77507 -43.99599,79.35659 -24.15267,43.58153 -44.05262,79.23154 -44.22213,79.22225 -0.3651,-0.02 -54.84415,-117.5916 -54.84415,-118.35953 0,-0.47679 15.16708,-10.13407 15.91589,-10.13407 0.1743,0 9.26484,19.13483 20.2012,42.52185 10.93636,23.38702 20.053,42.70441 20.2592,42.92753 0.2062,0.22312 21.01592,-27.63918 46.24382,-61.91622 25.2279,-34.27703 45.92746,-62.03805 45.99904,-61.69114 0.0716,0.34692 3.16,46.06839 6.86317,101.60328 3.70317,55.53489 6.85267,102.1267 6.9989,103.53734 l 0.26586,2.56481 -4.15925,-0.1099 c -2.28759,-0.0605 -6.16386,-0.19177 -8.61393,-0.29182 z"
       id="path25"
       transform="scale(0.26458333)" />
    <path
       style="fill:#00ffff;fill-opacity:0;stroke:#000000;stroke-width:2.04079;stroke-linecap:butt;stroke-dasharray:none;stroke-dashoffset:0;paint-order:normal"
       d="m 337.13944,477.45968 c -0.22461,-0.6682 -0.45554,-1.45789 -0.51319,-1.75487 -0.0577,-0.29698 -3.56157,-7.95091 -7.78649,-17.00874 -10.42844,-22.3576 -33.09307,-71.32173 -38.9776,-84.2063 -2.63795,-5.77596 -4.68384,-10.79473 -4.54643,-11.15283 0.41577,-1.08348 13.44425,-8.90707 13.96522,-8.38611 0.26239,0.26239 0.56053,1.05433 0.66254,1.75988 0.10201,0.70554 7.88456,17.5626 17.29454,37.46013 9.40999,19.89753 18.03108,38.15229 19.15799,40.56613 1.12691,2.41385 2.34193,4.5699 2.70004,4.79122 0.38109,0.23553 1.16705,-0.12904 1.89519,-0.87907 1.53192,-1.57796 21.89832,-28.84865 51.51554,-68.97949 12.30029,-16.6667 22.46623,-30.20102 22.59099,-30.07627 0.12474,0.12475 -16.2855,29.95042 -36.46722,66.27927 -36.64434,65.96298 -40.48411,72.80196 -40.87502,72.80196 -0.11425,0 -0.3915,-0.54671 -0.6161,-1.21491 z"
       id="path26"
       transform="scale(0.26458333)" />
    <path
       style="fill:#00ffff;fill-opacity:0;stroke:#000000;stroke-width:2.04079;stroke-linecap:butt;stroke-dasharray:none;stroke-dashoffset:0;paint-order:normal"
       d="m 336.74994,472.71103 c -0.71709,-1.62018 -8.28969,-18.01067 -16.82802,-36.4233 -21.19381,-45.70385 -30.94152,-66.92686 -32.16448,-70.02954 l -1.03029,-2.61386 2.83061,-1.80501 c 1.55684,-0.99276 4.17984,-2.56407 5.8289,-3.49181 l 2.99829,-1.68679 3.99737,8.7658 c 8.56096,18.77326 34.06641,72.55238 35.0153,73.83099 1.35681,1.82826 2.60803,1.96197 4.24682,0.45383 1.4003,-1.28865 21.48738,-28.00802 47.11381,-62.66971 7.84354,-10.60898 14.36219,-19.18784 14.4859,-19.06413 0.12371,0.12371 -5.05952,9.77571 -11.51827,21.44889 -16.49175,29.80623 -51.38222,92.46496 -52.63108,94.51855 l -1.04106,1.71188 z"
       id="path27"
       transform="scale(0.26458333)" />
    <path
       style="fill:#00ffff;fill-opacity:0;stroke:#000000;stroke-width:2.04079;stroke-linecap:butt;stroke-dasharray:none;stroke-dashoffset:0;paint-order:normal"
       d="m 436.82769,525.90272 c -6.38503,-0.36552 -11.70809,-0.69316 -11.82902,-0.72808 -0.12093,-0.0349 -0.0459,-21.38814 0.16683,-47.4516 l 0.38672,-47.38812 -21.39408,-9.13623 c -21.11634,-9.01762 -21.38957,-9.15422 -21.0464,-10.52149 0.19122,-0.7619 0.41285,-1.45044 0.49251,-1.5301 0.0797,-0.0797 9.47546,3.84528 20.87956,8.72207 l 20.73473,8.86692 0.34732,-12.50291 c 0.19103,-6.8766 0.47105,-28.38584 0.62228,-47.79832 0.22047,-28.30055 0.14087,-35.14918 -0.4016,-34.55745 -0.3721,0.40589 -20.18152,35.97038 -44.02091,79.03219 -23.8394,43.06182 -43.51344,78.48122 -43.72009,78.70979 -0.20665,0.22856 -12.99317,-26.80319 -28.41449,-60.07056 -15.42132,-33.26737 -28.2217,-60.48613 -28.44529,-60.48613 -0.22359,0 -0.40653,9.67905 -0.40653,21.50899 0,11.82995 -0.1616,46.69787 -0.35911,77.48427 l -0.35911,55.97527 h -1.58933 -1.58932 l 0.39625,-81.39897 c 0.21794,-44.76944 0.58953,-81.47356 0.82576,-81.56472 0.23623,-0.0912 5.3211,-3.18917 11.29971,-6.88449 5.97861,-3.69531 11.04916,-6.71875 11.2679,-6.71875 0.21873,0 9.18843,18.76772 19.93267,41.70604 10.74423,22.93832 19.72513,41.75711 19.95755,41.81953 0.23242,0.0624 21.31903,-28.31865 46.85914,-63.06903 25.54011,-34.75038 46.68179,-63.39114 46.98151,-63.64613 0.36295,-0.30879 2.95319,35.45256 7.75604,107.08164 3.96611,59.1499 7.33995,109.30688 7.49741,111.45997 0.23019,3.14748 0.13874,3.89867 -0.46659,3.83285 -0.41409,-0.045 -5.977,-0.38093 -12.36202,-0.74645 z m 1.36743,-105.96602 c -3.72187,-55.02466 -6.76704,-100.64453 -6.76704,-101.3775 0,-1.92655 -0.66728,-1.65234 -2.63007,1.0808 l -1.73321,2.41346 1.91166,0.79874 1.91166,0.79875 v 14.86289 c 0,13.63779 -0.57411,79.00716 -1.34348,152.96987 l -0.31017,29.81787 7.71132,0.14991 c 6.50719,0.12652 7.73513,0.0234 7.86384,-0.66002 0.0839,-0.44546 -2.89263,-45.83011 -6.61451,-100.85477 z m -96.51316,56.28531 c -0.11969,-0.11969 -0.92328,0.99063 -1.78575,2.46738 -0.86247,1.47675 -1.76006,2.685 -1.99465,2.685 -0.62519,0 -0.52086,-1.4831 0.12693,-1.80437 0.30441,-0.15096 0.24366,-0.20684 -0.13499,-0.12418 -0.37864,0.0827 -0.98356,-0.36078 -1.34426,-0.98543 -1.12308,-1.94491 -0.75545,0.13693 0.43691,2.47413 l 1.13099,2.21693 1.89123,-3.35592 c 1.04016,-1.84575 1.79328,-3.45385 1.67359,-3.57354 z m 14.52792,-34.2647 c 31.88145,-57.26031 40.79007,-73.48525 40.505,-73.77031 -0.15583,-0.15584 -4.12855,4.89783 -8.82827,11.23037 -19.35774,26.08316 -43.87402,58.60452 -45.41587,60.24511 -3.04096,3.23568 -4.36657,2.45139 -7.95703,-4.70779 -3.84795,-7.6726 -21.42696,-44.77462 -29.55683,-62.38225 -3.56517,-7.72143 -6.64288,-14.21528 -6.83935,-14.43077 -0.4136,-0.45364 -10.31882,5.34849 -10.31882,6.04441 0,0.73066 5.9534,13.81309 27.28251,59.95254 10.91419,23.60976 20.54722,44.48603 21.40674,46.39171 0.86046,1.90779 1.75877,3.24239 1.99895,2.96978 0.23991,-0.2723 8.21524,-14.46657 17.72297,-31.5428 z m -15.05941,-5.68387 c -0.16625,-0.16625 -0.46817,0.13343 -0.67094,0.66595 -0.29303,0.76955 -0.23101,0.83157 0.30227,0.30227 0.36902,-0.36628 0.53492,-0.80197 0.36867,-0.96822 z m -56.05156,-73.75399 c 0,-0.29698 -0.24298,-0.3898 -0.53996,-0.20625 -0.29698,0.18354 -0.53996,0.57669 -0.53996,0.87367 0,0.29698 0.24298,0.38979 0.53996,0.20625 0.29698,-0.18355 0.53996,-0.5767 0.53996,-0.87367 z m -1.95382,-0.2343 c 0.1844,-0.48052 0.0939,-0.69726 -0.21221,-0.50809 -0.29357,0.18144 -0.53377,0.55853 -0.53377,0.83799 0,0.77669 0.38702,0.60554 0.74598,-0.3299 z m 125.05594,-11.82408 c 0.0125,-0.73366 -0.59305,-0.0389 -3.73505,4.2847 -2.3615,3.24963 -2.60975,3.81881 -1.79338,4.11177 0.7521,0.26989 1.41907,-0.50807 3.2336,-3.77174 1.25733,-2.26147 2.29,-4.3426 2.29483,-4.62473 z m -107.95477,2.74769 c -0.64391,-1.69361 -1.34164,-1.9304 -0.81695,-0.27724 0.2327,0.73315 0.16182,1.02245 -0.19628,0.80113 -0.30827,-0.19053 -0.73677,-0.0612 -0.95222,0.28742 -0.27116,0.43873 -0.0333,0.5401 0.77263,0.32933 0.65827,-0.17214 1.16435,-0.0527 1.16435,0.27492 0,0.31867 0.12829,0.45111 0.28509,0.29432 0.1568,-0.1568 0.0413,-0.92624 -0.25662,-1.70988 z m 117.76825,-16.98225 c 1.20294,-2.17158 2.07214,-4.06335 1.93156,-4.20394 -0.39699,-0.39699 -6.88068,8.5188 -6.56567,9.02851 0.59998,0.97079 2.54618,-1.05539 4.63411,-4.82457 z m 11.32261,-19.40495 c 0.67164,-0.8564 0.65254,-0.8755 -0.20387,-0.20386 -0.51971,0.40758 -0.94493,0.8328 -0.94493,0.94493 0,0.4444 0.44341,0.15837 1.1488,-0.74107 z m 3.07345,-2.7421 c 0.22653,-1.53951 -0.64626,-1.49619 -1.68128,0.0834 -0.77565,1.18379 -0.75592,1.25125 0.34287,1.17261 0.74954,-0.0537 1.22748,-0.50218 1.33841,-1.25605 z"
       id="path28"
       transform="scale(0.26458333)" />
    <path
       style="fill:#00ffff;fill-opacity:0;stroke:#000000;stroke-width:2.04079;stroke-linecap:butt;stroke-dasharray:none;stroke-dashoffset:0;paint-order:normal"
       d="m 434.15964,526.52515 -8.87759,-0.60406 -0.49283,-1.88986 c -0.28612,-1.09715 -0.40954,-21.05085 -0.29425,-47.57101 l 0.19858,-45.68115 -19.72963,-8.46741 c -10.85129,-4.65708 -20.4336,-8.92922 -21.29402,-9.49364 l -1.56439,-1.02623 -21.10033,37.99713 C 349.4,470.68735 339.40436,488.40409 338.79265,489.15945 l -1.11221,1.3734 -5.18207,-10.65378 c -2.85014,-5.85958 -14.52644,-30.70162 -25.94733,-55.20454 -11.42089,-24.50291 -21.60926,-46.22491 -22.64082,-48.2711 l -1.87556,-3.72035 -0.35774,8.26492 c -0.19675,4.54571 -0.358,26.51069 -0.35832,48.81106 -3.2e-4,22.30039 -0.16151,52.756 -0.35821,67.67914 l -0.35762,27.13299 h -2.36574 -2.36574 l 0.29128,-16.60377 c 0.16021,-9.13207 0.42683,-45.45826 0.59249,-80.72487 0.18928,-40.29308 0.50043,-64.67258 0.83731,-65.60515 0.41816,-1.15755 2.9828,-2.95893 11.65751,-8.18811 10.52816,-6.34646 11.15953,-6.64889 11.83618,-5.66958 0.39313,0.56897 0.96309,1.32479 1.26659,1.67962 0.4827,0.56433 4.97524,9.98369 29.30858,61.45027 8.18442,17.3106 9.29358,19.37066 9.98246,18.54061 0.32954,-0.39706 0.55907,-0.88888 0.51008,-1.09293 -0.049,-0.20406 5.39343,-7.7365 12.09427,-16.73876 6.70083,-9.00227 24.71417,-33.3765 40.02964,-54.16496 33.93959,-46.06792 39.40766,-53.35934 40.19005,-53.59159 0.73182,-0.21723 1.01105,1.9437 2.07587,16.06436 3.28531,43.56731 13.85783,201.79371 13.67292,204.62642 l -0.15981,2.44826 -3.50974,0.0641 c -1.93036,0.0353 -7.50466,-0.20774 -12.38733,-0.53996 z m 9.51836,-11.80823 c -1.30835,-23.78366 -11.36039,-172.06004 -11.72283,-172.9222 -0.25761,-0.61278 -0.46903,7.44554 -0.48875,18.62862 -0.0393,22.25451 -0.95923,122.54014 -1.33369,145.38424 l -0.24563,14.98389 h 7.06254 7.06253 z m -89.31852,-70.86975 c 26.15644,-46.90499 36.72342,-66.17328 36.44369,-66.45301 -0.14795,-0.14795 -10.35717,13.16407 -22.68716,29.58226 -12.32998,16.4182 -23.44995,31.01843 -24.71103,32.44497 -1.935,2.18888 -2.55307,2.56812 -3.96003,2.42982 -1.275,-0.12534 -2.03229,-0.70905 -3.21947,-2.48157 -1.62679,-2.42886 -14.39538,-28.99866 -29.11648,-60.58766 -4.77473,-10.24574 -8.90139,-18.91505 -9.17037,-19.26513 -0.60337,-0.78528 -9.06,3.97517 -9.06,5.1001 0,0.84315 4.15996,10.01005 28.35877,62.49145 9.72236,21.08544 18.38267,39.89637 19.24516,41.80205 0.92426,2.04219 1.76366,3.26159 2.0443,2.96978 0.26188,-0.2723 7.38656,-12.88718 15.83262,-28.03306 z m 70.22678,-23.40965 c 0.58813,-8.28555 1.11695,-85.39255 0.58563,-85.38912 -0.5333,0.003 -40.99031,72.61066 -40.99031,73.56431 0,0.31716 1.09342,0.93277 2.42982,1.36803 3.50106,1.14029 14.357,5.5811 26.18806,10.7127 5.64259,2.4474 10.52659,4.46677 10.85334,4.48747 0.36662,0.0232 0.72404,-1.793 0.93346,-4.74339 z m 6.30186,-99.70125 c 0,-2.30415 -0.54602,-2.3995 -1.77984,-0.3108 -0.97511,1.65071 -0.88666,1.78824 1.37487,2.13803 0.22274,0.0345 0.40497,-0.7878 0.40497,-1.82723 z"
       id="path29"
       transform="scale(0.26458333)" />
    <path
       style="fill:#00ffff;fill-opacity:0;stroke:#000000;stroke-width:2.04079;stroke-linecap:butt;stroke-dasharray:none;stroke-dashoffset:0;paint-order:normal"
       d="m 432.25865,527.18706 c -3.84938,-0.25783 -7.25113,-0.72097 -7.55945,-1.02919 -0.37473,-0.37463 -0.65008,-16.2225 -0.83056,-47.80412 l -0.26998,-47.24372 -17.81868,-7.71202 c -9.80027,-4.24161 -19.07635,-8.35647 -20.61352,-9.14414 l -2.79483,-1.43211 -10.11058,18.2125 c -16.81559,30.29048 -32.1909,57.54129 -33.35536,59.11819 -0.6046,0.81873 -1.29352,1.29434 -1.53095,1.05691 -0.70573,-0.70573 -36.83575,-77.20351 -51.88827,-109.86257 -1.19767,-2.59856 -2.34254,-4.72465 -2.54417,-4.72465 -0.48847,0 -1.08287,48.96125 -1.08432,89.31724 -6.4e-4,17.84406 -0.16104,38.45756 -0.35644,45.80776 l -0.35527,13.36401 h -2.90175 -2.90175 l 0.3476,-57.64073 c 0.19118,-31.70241 0.50321,-68.53297 0.69338,-81.84571 l 0.34578,-24.20497 1.89909,-1.74013 c 1.94256,-1.77993 18.14999,-11.75564 20.63315,-12.69973 2.57153,-0.9777 1.57818,-2.80781 22.83012,42.06134 16.95995,35.80748 18.722,39.41708 19.24172,39.41708 0.2101,0 0.72693,-0.6914 1.1485,-1.53646 0.74699,-1.49738 54.25095,-74.20739 78.62658,-106.85077 6.70426,-8.97823 12.53836,-16.45789 12.96465,-16.62147 1.28028,-0.49129 1.66343,0.39947 2.22458,5.17182 1.17312,9.9768 13.38615,189.43373 14.37503,211.22512 l 0.36141,7.96441 -5.88842,-0.0776 c -3.23864,-0.0426 -9.03792,-0.28851 -12.88729,-0.54633 z m 10.79105,-11.12024 c -0.18245,-2.30158 -1.15943,-17.18423 -2.17108,-33.07255 -3.68958,-57.94637 -8.00501,-120.15157 -8.36407,-120.56489 -0.20248,-0.23308 -0.52949,22.72872 -0.72668,51.02623 -0.19721,28.29749 -0.52004,63.90283 -0.71741,79.12295 l -0.35885,27.67295 h 6.33491 6.3349 z m -98.66619,-55.88586 c 7.49553,-13.23004 37.9025,-67.9472 39.48726,-71.05708 0.65785,-1.29093 1.09564,-2.44759 0.97288,-2.57036 -0.12277,-0.12276 -9.17712,11.59652 -20.12079,26.04286 -10.94367,14.44634 -20.66889,27.08391 -21.6116,28.08348 -2.18606,2.3179 -4.30996,2.42724 -6.32352,0.32554 -1.62667,-1.69787 -9.99455,-18.6605 -25.63462,-51.96418 -5.92733,-12.62157 -11.48103,-24.33864 -12.34154,-26.03795 l -1.56457,-3.08964 -3.20108,1.77251 c -4.33017,2.39771 -4.54292,2.84461 -3.03235,6.36967 1.66581,3.88732 12.67918,27.95032 30.07792,65.71694 7.88844,17.12307 14.90995,32.40851 15.60335,33.96765 0.69339,1.55913 1.38201,2.83479 1.53024,2.83479 0.14824,0 2.91953,-4.67741 6.15842,-10.39423 z M 423.591,422.92371 c 0.62046,-1.94142 1.00942,-84.99806 0.39511,-84.36876 -0.59651,0.61107 -13.67813,23.83825 -26.15322,46.43657 -12.12031,21.95564 -12.97382,23.5406 -12.76276,23.70019 0.10525,0.0796 2.09599,0.80903 4.42385,1.62099 2.32786,0.81196 10.71074,4.24424 18.62862,7.62729 7.91788,3.38306 14.55004,6.16172 14.73814,6.17482 0.18809,0.0131 0.51671,-0.5229 0.73026,-1.1911 z m -32.65992,-45.28538 c 0,-0.29698 -0.24298,-0.38979 -0.53996,-0.20625 -0.29698,0.18354 -0.53996,0.57669 -0.53996,0.87367 0,0.29698 0.24298,0.38979 0.53996,0.20625 0.29698,-0.18354 0.53996,-0.57669 0.53996,-0.87367 z"
       id="path30"
       transform="scale(0.26458333)" />
    <path
       style="fill:#00ffff;fill-opacity:0;stroke:#000000;stroke-width:2.04079;stroke-linecap:butt;stroke-dasharray:none;stroke-dashoffset:0;paint-order:normal"
       d="m 430.09973,527.74024 c -3.07816,-0.29567 -5.13627,-0.7629 -5.6578,-1.28443 -0.70652,-0.70652 -0.87097,-5.34794 -1.19095,-33.61477 -0.20419,-18.03729 -0.39567,-39.2341 -0.42551,-47.10401 l -0.0543,-14.30895 -6.33577,-2.66479 c -3.48467,-1.46564 -12.51796,-5.4077 -20.07397,-8.76014 -7.55601,-3.35243 -13.776,-6.04099 -13.82221,-5.97456 -0.0462,0.0664 -6.71964,12.02689 -14.82986,26.57882 -20.36097,36.53308 -27.44225,48.93307 -28.75031,50.34453 -1.9188,2.07048 -0.22653,5.18717 -21.03221,-38.73539 -6.82276,-14.40344 -17.15207,-36.39331 -22.95402,-48.86639 -5.80195,-12.47308 -10.72773,-22.8753 -10.94617,-23.11604 -0.69575,-0.76679 -1.06992,19.52761 -1.36199,73.87229 -0.15641,29.10384 -0.42776,57.10752 -0.603,62.23039 l -0.31862,9.31431 h -3.53688 -3.53687 l 0.43153,-68.70991 c 0.23734,-37.79046 0.5794,-74.89644 0.76013,-82.45775 l 0.32859,-13.74783 2.53379,-1.91101 c 6.89488,-5.2002 20.89552,-13.17612 22.22999,-12.66404 1.53706,0.58983 4.34167,5.92827 16.01033,30.47496 21.52201,45.27462 23.90589,50.20289 24.28386,50.20289 0.20827,0 3.86711,-4.79889 8.13077,-10.66421 24.62805,-33.87965 79.07939,-107.27923 82.98716,-111.86543 1.79292,-2.10419 3.06959,-2.01398 3.94119,0.2785 0.29848,0.78506 1.02277,7.53403 1.60953,14.99773 2.31858,29.49272 10.90704,156.13403 12.65655,186.62754 0.45153,7.86992 0.94225,16.07056 1.0905,18.22365 l 0.26955,3.91471 -8.49748,-0.073 c -4.67362,-0.0401 -10.67463,-0.2821 -13.33558,-0.5377 z m 12.30776,-10.32352 c -0.12491,-1.26215 -1.5503,-22.70532 -3.16753,-47.65147 -4.89638,-75.52756 -5.85569,-88.24558 -6.25185,-82.88387 -0.18651,2.52431 -0.49444,27.0655 -0.68428,54.53597 -0.18983,27.47046 -0.50195,56.32458 -0.69359,64.12025 l -0.34843,14.17395 h 5.68639 5.68639 z M 339.09492,468.75827 c 0,-0.40536 1.84764,-3.98934 4.10587,-7.96441 12.72266,-22.39515 36.44344,-65.37652 36.29485,-65.76522 -0.0955,-0.24991 -7.94913,9.74076 -17.45242,22.2015 -9.5033,12.46075 -18.07687,23.36492 -19.05239,24.23149 -2.35245,2.08976 -4.59428,2.09826 -6.53122,0.0248 -1.81783,-1.946 -9.01349,-16.40764 -25.82641,-51.90521 -7.24396,-15.29437 -13.34491,-27.98239 -13.55767,-28.1956 -0.21276,-0.2132 -1.65814,0.33842 -3.21195,1.22584 -1.97511,1.12803 -2.82511,1.94925 -2.82511,2.72946 0,0.61379 4.56975,11.11785 10.15499,23.34235 25.23608,55.23454 37.10038,80.81204 37.48524,80.81204 0.22892,0 0.41622,-0.33166 0.41622,-0.737 z m 83.94231,-50.6942 c 0.19212,-2.74704 0.27554,-21.11731 0.18539,-40.82282 l -0.16392,-35.82818 -5.46191,9.64012 c -10.47294,18.48444 -31.65402,56.93772 -31.45544,57.10593 0.11004,0.0932 4.20927,1.77037 9.10941,3.72705 4.90014,1.95668 12.79705,5.24674 17.5487,7.31125 4.75165,2.06451 8.92041,3.77787 9.26392,3.80747 0.40902,0.0352 0.74511,-1.6699 0.97385,-4.94082 z"
       id="path31"
       transform="scale(0.26458333)" />
    <path
       style="fill:#00ffff;fill-opacity:0;stroke:#000000;stroke-width:2.04079;stroke-linecap:butt;stroke-dasharray:none;stroke-dashoffset:0;paint-order:normal"
       d="m 429.26824,528.36262 c -4.00499,-0.52144 -5.22635,-0.96235 -5.69848,-2.05711 -0.60818,-1.41022 -1.22782,-33.21774 -1.27695,-65.5482 l -0.044,-28.98647 -1.21491,-0.38496 c -0.6682,-0.21173 -9.47502,-3.98346 -19.57071,-8.38161 -10.09569,-4.39816 -18.52163,-7.82528 -18.7243,-7.61584 -0.20266,0.20945 -7.14894,12.52991 -15.43616,27.37882 -27.63841,49.52205 -28.14493,50.35951 -30.02009,49.63435 -1.43605,-0.55535 -7.90376,-13.97571 -49.8928,-103.5265 -1.75993,-3.75343 -2.61128,-5.06668 -2.92323,-4.50925 -0.24208,0.43256 -0.67792,30.02963 -0.96855,65.77126 -0.29063,35.74163 -0.68016,67.47535 -0.86562,70.51937 l -0.3372,5.53459 h -4.22189 -4.22189 l 0.25362,-36.85227 c 0.13949,-20.26875 0.46515,-57.48081 0.72369,-82.69346 0.44413,-43.31055 0.52447,-45.89455 1.45542,-46.80783 1.97319,-1.93573 13.37343,-9.13769 18.8426,-11.90357 l 5.61025,-2.83724 1.37536,1.29209 c 1.82205,1.71173 5.44115,8.91448 23.49268,46.75532 8.34457,17.49245 15.34144,31.97578 15.54859,32.18519 0.20715,0.2094 6.1988,-7.56602 13.31478,-17.27872 35.64423,-48.65134 76.0692,-102.91141 78.03752,-104.74518 3.37885,-3.14788 4.55413,-0.85631 5.64424,11.00524 1.91893,20.87991 11.79226,166.30051 14.11984,207.96572 l 0.36951,6.61451 -10.20074,-0.0708 c -5.61041,-0.0389 -11.53715,-0.2448 -13.17053,-0.45746 z m 12.42006,-9.86598 c 0.002,-1.55226 -7.58441,-115.21596 -7.73968,-115.95642 -0.39269,-1.87261 -0.89466,25.05344 -1.16769,62.63537 -0.16074,22.12486 -0.44573,43.32504 -0.63332,47.11151 l -0.34107,6.88449 h 4.94039 c 3.59182,0 4.94066,-0.18424 4.94137,-0.67495 z M 340.24334,464.77007 c 0.78012,-1.41035 5.42466,-9.73223 10.3212,-18.49308 15.55283,-27.82703 23.12581,-41.73358 22.96956,-42.17986 -0.0835,-0.23834 -6.41932,7.67823 -14.07972,17.59237 -7.66039,9.91414 -14.88981,18.89465 -16.06536,19.9567 -2.61602,2.36341 -4.60382,2.50936 -6.97723,0.51226 -1.91266,-1.6094 -10.10583,-17.88376 -28.3724,-56.357 -6.13355,-12.91854 -11.24205,-23.57853 -11.35222,-23.68885 -0.23365,-0.23397 -5.10874,2.55597 -5.10874,2.92365 0,0.81536 19.1239,42.98861 35.37035,78.00097 4.06522,8.76085 8.25299,17.81193 9.30616,20.11351 1.05317,2.30158 2.06227,4.18444 2.24243,4.18414 0.18016,-3e-4 0.96585,-1.15447 1.74597,-2.56481 z m 81.67767,-43.64539 c 0.18027,-0.46975 0.32003,-17.78222 0.31058,-38.47215 -0.0154,-33.74601 -0.1015,-37.5069 -0.83647,-36.53813 -1.25981,1.66057 -23.82689,42.12364 -31.19904,55.94031 l -3.05417,5.72402 10.66894,4.39185 c 5.86791,2.41552 13.46323,5.59605 16.87847,7.06784 3.41525,1.47179 6.36579,2.69047 6.55674,2.70818 0.19097,0.0177 0.49469,-0.35216 0.67495,-0.82192 z m 11.50114,-37.87776 c -0.1369,-0.52536 -0.25792,-0.22625 -0.26892,0.66468 -0.011,0.89093 0.101,1.32077 0.24892,0.95521 0.1479,-0.36557 0.1569,-1.09452 0.02,-1.61989 z"
       id="path32"
       transform="scale(0.26458333)" />
    <path
       style="fill:#00ffff;fill-opacity:0;stroke:#000000;stroke-width:2.04079;stroke-linecap:butt;stroke-dasharray:none;stroke-dashoffset:0;paint-order:normal"
       d="m 427.29762,528.79418 c -4.6026,-0.84149 -4.58922,-0.80243 -5.09268,-14.87418 -0.24198,-6.76341 -0.4526,-27.85111 -0.46805,-46.86156 l -0.0281,-34.56445 -16.62279,-7.13034 c -20.1194,-8.6302 -21.54155,-9.17327 -22.22711,-8.48772 -0.2888,0.28881 -8.20809,14.25091 -17.5984,31.02689 -19.21444,34.32701 -23.52227,41.7321 -25.51842,43.8658 -1.61834,1.72985 -2.32364,1.83921 -3.48235,0.53996 -1.69962,-1.90575 -12.18963,-23.61351 -37.76952,-78.15922 -6.8243,-14.55192 -12.60117,-26.66094 -12.83748,-26.90892 -0.62065,-0.65131 -1.01737,18.66608 -1.65047,80.36497 -0.30778,29.99478 -0.7049,55.56864 -0.88249,56.83079 l -0.32289,2.29483 h -4.86157 -4.86157 l 0.38335,-50.89123 c 0.47633,-63.23742 1.21834,-113.67394 1.69628,-115.3014 0.44412,-1.51233 9.62566,-7.70958 19.0729,-12.87361 l 6.69754,-3.66099 1.79143,2.07237 c 1.93202,2.23502 9.16386,16.69281 26.96061,53.89924 6.21476,12.99279 11.47356,23.62325 11.68622,23.62325 0.62869,0 5.3273,-6.13422 20.6796,-26.998 35.04513,-47.62636 60.07208,-81.22617 67.08953,-90.07074 3.45881,-4.35939 4.18098,-5.0048 5.43754,-4.85964 3.04641,0.35193 3.70373,3.60911 5.48209,27.16539 3.18017,42.12471 11.59536,167.92826 12.7138,190.06594 0.16505,3.26676 0.42786,6.97224 0.58403,8.23439 l 0.28396,2.29483 -11.77722,-0.0641 c -6.47747,-0.0353 -13.02847,-0.29291 -14.55778,-0.57251 z m 12.50708,-10.46947 c 1.04114,-0.2798 1.06998,-0.5595 0.68127,-6.60714 -2.21444,-34.45331 -5.92172,-88.94245 -6.06085,-89.08158 -0.348,-0.348 -0.8166,23.47049 -1.11311,56.57856 -0.16623,18.56113 -0.44859,35.02316 -0.62747,36.58229 l -0.32522,2.83479 3.17911,-0.007 c 1.74851,-0.004 3.66834,-0.13885 4.26627,-0.29955 z M 339.73693,464.23066 c 4.55255,-7.72699 28.97925,-52.22768 28.77837,-52.42856 -0.1444,-0.1444 -0.3449,-0.1613 -0.44555,-0.0376 -0.10065,0.12374 -4.94589,6.29953 -10.7672,13.72398 -11.69838,14.92004 -14.35432,17.9141 -16.33117,18.41026 -1.94287,0.48763 -3.94368,-0.16601 -5.4355,-1.77572 -1.71337,-1.84875 -12.90485,-24.12301 -27.48434,-54.70172 -6.44256,-13.5125 -11.79661,-24.65336 -11.89789,-24.75747 -0.10128,-0.1041 -0.73199,0.32112 -1.40158,0.94493 -0.66958,0.62382 -1.44094,1.13422 -1.71411,1.13422 -0.27318,0 -0.35351,0.57043 -0.17853,1.26762 0.80508,3.20771 45.01529,99.70491 45.67981,99.70491 0.17756,0 0.71652,-0.6682 1.19769,-1.48489 z m 81.63101,-70.19481 c 0.18443,-14.77466 0.15433,-31.1152 -0.0669,-36.31231 l -0.4022,-9.4493 -3.92795,6.91243 c -10.32996,18.17874 -28.02368,50.4317 -28.29809,51.58314 -0.11535,0.48398 5.0476,2.90944 15.75726,7.40246 8.76085,3.67544 16.08041,6.69251 16.26568,6.70461 0.18527,0.0121 0.48775,-12.06637 0.67218,-26.84103 z"
       id="path33"
       transform="scale(0.26458333)" />
    <path
       style="fill:#00ffff;fill-opacity:0;stroke:#000000;stroke-width:2.04079;stroke-linecap:butt;stroke-dasharray:none;stroke-dashoffset:0;paint-order:normal"
       d="m 427.64836,529.60217 c -2.36506,-0.38818 -4.34399,-1.36767 -4.91363,-2.43206 -1.11608,-2.08542 -1.54305,-17.2649 -1.55433,-55.26005 l -0.0116,-38.89217 -9.31431,-3.98369 c -19.09121,-8.16523 -26.94646,-11.37509 -27.83705,-11.37495 -0.64791,1.1e-4 -6.00543,9.04808 -18.31446,30.93013 -24.25556,43.1197 -25.55301,45.20409 -28.13788,45.20409 -2.2431,0 -3.12324,-1.743 -34.90009,-69.11489 -7.49394,-15.88832 -14.24435,-30.10277 -15.00091,-31.58766 l -1.37556,-2.6998 -0.33036,2.42982 c -0.18169,1.3364 -0.69429,31.38476 -1.1391,66.77414 -0.44482,35.38937 -0.95868,65.09392 -1.14192,66.01012 l -0.33316,1.66579 h -5.64484 -5.64484 l 0.30921,-14.17395 c 0.17006,-7.79567 0.44774,-34.34146 0.61706,-58.99063 0.4565,-66.45606 1.04027,-92.90714 2.08563,-94.50256 1.0829,-1.65273 11.20499,-8.36506 19.48195,-12.91922 l 6.47952,-3.56516 1.7258,2.02868 c 2.335,2.74478 6.74511,11.39238 23.60243,46.28097 7.88095,16.31074 14.59372,29.91774 14.91727,30.23777 0.80014,0.79144 0.56367,1.09396 24.39909,-31.21383 32.4507,-43.98538 62.45564,-84.00746 65.10334,-86.83806 4.38162,-4.6843 6.91913,-2.9666 8.14291,5.51213 0.71901,4.98157 1.29196,11.72219 3.02918,35.63737 2.79799,38.51811 9.19526,134.27718 11.36086,170.05774 0.47533,7.8536 0.98513,14.47486 1.13287,14.71391 0.26639,0.43104 -24.2018,0.49134 -26.79312,0.066 z m 12.29913,-12.29048 c 0.17528,-0.17528 -4.64693,-73.54204 -4.91735,-74.81442 -0.35528,-1.67161 -0.88329,19.02296 -1.17448,46.0311 -0.16569,15.36834 -0.45497,28.34302 -0.64285,28.83261 -0.30448,0.7935 0.0342,0.84767 3.11825,0.49874 1.90291,-0.21528 3.53031,-0.4619 3.61643,-0.54803 z m -92.61554,-68.06492 c 12.00877,-21.65023 16.20582,-29.46316 15.95964,-29.70934 -0.12418,-0.12419 -4.19079,4.75458 -9.03691,10.84169 -10.01302,12.57717 -11.7682,14.27799 -14.73431,14.27799 -4.56957,0 -6.02142,-2.60504 -34.00526,-61.01549 -5.05091,-10.54272 -9.35966,-19.35656 -9.57498,-19.58631 -0.21533,-0.22975 -0.84134,0.0793 -1.39112,0.68683 -0.97513,1.0775 -0.96847,1.18032 0.27171,4.19745 3.33145,8.1048 37.33867,82.3826 41.68124,91.03924 1.18274,2.3577 2.33594,4.04186 2.58812,3.77972 0.25017,-0.26005 3.959,-6.79035 8.24187,-14.51178 z m 73.83689,-30.50775 c 0,-0.59395 -0.18805,-1.07992 -0.41789,-1.07992 -0.22984,0 -0.32946,-14.27519 -0.22137,-31.72265 0.11435,-18.45863 -0.0105,-32.26407 -0.29855,-33.01751 -0.46568,-1.218 -0.60862,-1.08979 -2.40781,2.15984 -1.052,1.90008 -5.43399,9.77223 -9.73776,17.49366 -8.67809,15.56945 -17.85869,32.47456 -18.35157,33.7925 -0.17585,0.47022 -0.0392,0.87976 0.30374,0.91012 0.56638,0.0501 23.7762,9.88828 27.62147,11.70817 2.34757,1.11104 3.50974,1.03018 3.50974,-0.24421 z"
       id="path34"
       transform="scale(0.26458333)" />
    <path
       style="fill:#00ffff;fill-opacity:0;stroke:#000000;stroke-width:2.04079;stroke-linecap:butt;stroke-dasharray:none;stroke-dashoffset:0;paint-order:normal"
       d="m 425.63734,529.80594 c -3.5159,-1.3027 -3.95349,-2.23919 -4.48875,-9.60622 -0.26765,-3.68374 -0.49407,-24.68881 -0.50317,-46.67793 l -0.0165,-39.98023 -15.52385,-6.55214 c -19.74945,-8.33564 -19.96974,-8.42111 -20.84231,-8.08627 -0.94879,0.36408 -5.49031,8.03537 -21.0674,35.58582 -20.71024,36.62923 -22.76862,39.84446 -25.50823,39.84446 -0.68545,0 -1.82835,-0.7491 -2.6774,-1.75487 -1.84718,-2.18813 -9.52919,-17.87817 -30.73305,-62.77036 -9.11763,-19.30357 -16.77126,-35.30141 -17.00807,-35.55074 -0.57619,-0.6067 -1.01106,12.29077 -1.37161,40.68036 -0.61197,48.18477 -1.39069,90.46519 -1.688,91.64979 -0.29771,1.18615 -0.50408,1.22334 -6.78812,1.22334 h -6.48108 l 0.31237,-1.75487 c 0.1718,-0.96517 0.56907,-30.18376 0.88282,-64.93019 0.65063,-72.05308 1.26283,-98.98902 2.29908,-101.15507 1.19896,-2.50619 11.70064,-9.63183 22.94705,-15.57012 l 3.9128,-2.06602 1.4868,1.82984 c 0.81775,1.00641 2.7794,4.16517 4.35924,7.01948 2.58178,4.66453 18.54293,37.02243 29.9269,60.67053 2.39462,4.97438 4.50641,9.04433 4.69287,9.04433 0.49066,0 3.95484,-4.58825 27.31421,-36.17732 11.52943,-15.59135 28.60879,-38.55315 37.95412,-51.02623 24.99846,-33.36508 25.16847,-33.56489 28.18002,-33.12066 3.06125,0.45155 4.33032,5.00325 5.62131,20.16162 2.05489,24.12805 13.22233,189.35251 13.95957,206.53472 l 0.12743,2.96978 -13.76898,0.10513 c -9.58323,0.0732 -14.29826,-0.091 -15.51003,-0.53996 z m 13.6543,-17.78882 c -0.19278,-2.74704 -0.58021,-7.18147 -0.86096,-9.85427 -0.28075,-2.6728 -1.01189,-12.87805 -1.62476,-22.67832 -0.61286,-9.80028 -1.18947,-18.06166 -1.28135,-18.35864 -0.3895,-1.25891 -0.84093,12.30249 -1.1099,33.34253 l -0.28819,22.54333 h 2.75783 2.75782 z m -89.8245,-68.10863 c 4.96228,-8.94307 9.03223,-16.58222 9.04433,-16.9759 0.0121,-0.39367 -2.61529,2.52211 -5.83864,6.47952 -7.96421,9.77789 -10.19838,11.78496 -13.11845,11.78496 -4.65075,0 -7.41794,-4.61289 -26.39883,-44.00675 -6.00982,-12.47308 -12.33906,-25.65485 -14.06496,-29.29283 -1.72591,-3.63798 -3.39325,-6.61451 -3.7052,-6.61451 -0.83352,0 -0.69612,1.25429 0.45621,4.1647 2.04676,5.16942 32.04451,70.79701 39.19032,85.73865 3.59489,7.51678 3.62036,7.55216 4.51409,6.27087 0.49434,-0.70872 4.95885,-8.60564 9.92113,-17.54871 z m 71.16174,-25.6977 c -0.69985,-0.44215 -0.84663,-4.82609 -1.07992,-32.25435 l -0.26998,-31.74264 -1.15167,1.88986 c -1.86087,3.05364 -20.55359,36.94055 -24.29092,44.03556 l -3.42829,6.50833 5.79608,2.3712 c 3.18784,1.30416 9.5623,4.0153 14.16546,6.02477 4.60316,2.00946 8.97684,3.65928 9.71928,3.66626 1.05793,0.01 1.17472,-0.098 0.53996,-0.49899 z"
       id="path35"
       transform="scale(0.26458333)" />
    <path
       style="fill:#00ffff;fill-opacity:0;stroke:#000000;stroke-width:2.04079;stroke-linecap:butt;stroke-dasharray:none;stroke-dashoffset:0;paint-order:normal"
       d="m 424.38803,529.8358 c -4.18753,-2.11164 -3.9798,0.4051 -4.18187,-50.66434 l -0.17856,-45.12976 -16.95166,-7.11137 c -9.32342,-3.91126 -17.41076,-7.11139 -17.97187,-7.11139 -1.20623,0 -4.56693,5.5651 -24.12958,39.95705 -14.82349,26.06028 -19.60677,33.74314 -21.56316,34.63453 -1.81232,0.82575 -3.82112,0.20586 -5.08506,-1.56918 -1.77405,-2.49142 -11.31304,-21.92426 -27.893,-56.82359 -18.47453,-38.88727 -18.36606,-38.66849 -18.81372,-37.94416 -0.19003,0.30748 -0.70342,23.73187 -1.14086,52.05418 -0.94149,60.95769 -1.33101,76.00788 -2.00004,77.27821 -0.43521,0.82636 -1.38332,0.94493 -7.55591,0.94493 -6.44105,0 -7.02723,-0.0808 -6.70347,-0.92455 0.19514,-0.5085 0.58259,-20.97974 0.86101,-45.49164 0.72763,-64.06007 1.6027,-113.02599 2.10711,-117.9059 0.39041,-3.77708 0.62943,-4.42473 2.25935,-6.1219 2.41463,-2.51426 11.06127,-8.27187 19.16164,-12.75932 3.59683,-1.99258 6.67727,-3.62286 6.84543,-3.62286 1.54681,0 15.24021,26.42963 36.01878,69.51985 2.18389,4.52892 4.23202,8.22707 4.55139,8.21812 0.31937,-0.009 7.38037,-9.18151 15.69111,-20.38349 52.65712,-70.97607 68.68784,-92.25642 72.39065,-96.09662 2.17655,-2.25732 3.08462,-2.83479 4.45768,-2.83479 4.53662,0 5.69074,4.41722 7.64002,29.24101 2.44198,31.09821 13.52285,195.83205 13.52285,201.03746 0,0.71875 -1.85413,0.82443 -14.46451,0.82443 -13.92641,0 -14.55414,-0.0452 -16.87375,-1.21491 z m 14.33851,-15.92882 c -0.52958,-4.55528 -1.84041,-21.26802 -2.22477,-28.3654 -0.66271,-12.23693 -1.29384,-7.9141 -1.29866,8.89497 -0.003,9.00112 -0.15791,17.64132 -0.34519,19.20045 l -0.3405,2.83479 h 2.25365 2.25365 z m -91.35842,-67.7545 c 3.80782,-6.81831 6.80597,-12.51427 6.66254,-12.65769 -0.14342,-0.14343 -2.11423,1.91849 -4.37959,4.58202 -4.88983,5.74931 -7.41904,7.66022 -10.13878,7.66022 -4.16953,0 -6.69033,-3.51308 -16.46649,-22.94831 -6.00264,-11.93339 -20.02797,-40.77284 -22.9333,-47.15639 -0.58568,-1.28684 -1.1897,-2.21487 -1.34227,-2.0623 -0.36084,0.36084 34.71925,77.43669 39.09985,85.90784 l 0.83949,1.62339 0.86762,-1.27593 c 0.4772,-0.70176 3.98311,-6.85455 7.79093,-13.67285 z m 71.74113,-42.93697 c -0.0933,-7.94435 -0.33633,-21.49075 -0.53996,-30.10311 l -0.37023,-15.65884 -4.38729,7.82942 c -6.01106,10.72717 -15.61716,28.21962 -19.34747,35.23125 -2.78696,5.23848 -2.99095,5.83995 -2.09546,6.17858 0.54563,0.20633 6.58065,2.74478 13.41114,5.64101 6.8305,2.89623 12.66207,5.27939 12.95904,5.29591 0.35126,0.0195 0.48065,-5.01796 0.37023,-14.41422 z"
       id="path36"
       transform="scale(0.26458333)" />
    <path
       style="fill:#00ffff;fill-opacity:0;stroke:#000000;stroke-width:2.04079;stroke-linecap:butt;stroke-dasharray:none;stroke-dashoffset:0;paint-order:normal"
       d="m 424.3927,530.47586 c -1.34514,-0.59378 -2.74929,-1.5657 -3.12032,-2.15982 -1.35446,-2.16883 -1.69584,-12.36488 -1.70949,-51.05885 -0.008,-21.71651 -0.16785,-40.25419 -0.35598,-41.19482 -0.2609,-1.30451 -0.80531,-1.90845 -2.29483,-2.54575 -10.7462,-4.59785 -29.4534,-12.15132 -30.72351,-12.40534 -1.53937,-0.30788 -1.73129,-0.11597 -4.7281,4.72797 -1.71798,2.77688 -9.604,16.34754 -17.52449,30.15702 -21.3645,37.2493 -22.8043,39.41708 -26.18017,39.41708 -1.18828,0 -2.23805,-0.47858 -3.25714,-1.48489 -1.70293,-1.68158 -11.02423,-20.45913 -31.29362,-63.04034 -7.6338,-16.03681 -14.07624,-29.36326 -14.31653,-29.61432 -0.70137,-0.73282 -1.04986,9.46732 -1.64823,48.24295 -0.9252,59.95449 -1.44006,76.61761 -2.41326,78.1029 -0.80357,1.2264 -1.07888,1.27122 -7.8081,1.27122 -3.83634,0 -7.08892,-0.18405 -7.22795,-0.409 -0.13903,-0.22495 -0.0435,-13.04225 0.21231,-28.48289 0.25579,-15.44064 0.73599,-47.26947 1.0671,-70.73074 0.75831,-53.73103 1.19427,-66.82489 2.3138,-69.49351 0.59352,-1.41477 2.1118,-2.94267 5.19815,-5.23106 7.36811,-5.46312 21.9939,-13.88938 23.33335,-13.44289 1.40403,0.468 7.22103,11.35214 23.24091,43.48577 9.21643,18.48688 16.93622,33.61251 17.15508,33.61251 0.21886,0 0.6173,-0.42723 0.88541,-0.94942 0.26812,-0.52218 7.39489,-10.18071 15.83728,-21.46341 8.44239,-11.28269 26.89574,-35.94335 41.00744,-54.80145 14.11171,-18.85811 27.25957,-35.9276 29.21748,-37.9322 3.10003,-3.17397 3.8125,-3.64473 5.51611,-3.64473 4.09562,0 5.66582,4.08916 7.15674,18.63783 1.19464,11.65759 5.47721,72.55103 11.35381,161.43885 3.25455,49.22731 3.3371,51.00917 2.39105,51.60807 -0.41836,0.26484 -7.07819,0.47734 -14.79961,0.47219 -12.85015,-0.009 -14.24607,-0.10076 -16.48469,-1.08893 z m 13.4747,-16.56888 c -0.0835,-4.20502 -1.35046,-16.82453 -1.72694,-17.201 -0.21598,-0.21598 -0.3927,3.63713 -0.3927,8.56248 0,4.92534 -0.14748,9.33952 -0.32775,9.80927 -0.24721,0.64423 0.0181,0.8541 1.07992,0.8541 1.27382,0 1.40385,-0.19254 1.36747,-2.02485 z m -92.89698,-64.91053 c 2.70803,-4.88933 4.9237,-9.1339 4.9237,-9.4324 0,-0.29849 -1.39715,0.81919 -3.10477,2.48375 -3.59014,3.49958 -4.82291,4.22919 -7.14579,4.22919 -4.06649,0 -6.20516,-2.46093 -12.9045,-14.84891 -2.40905,-4.45467 -4.38073,-7.82661 -4.3815,-7.49322 -10e-4,0.5721 12.65437,28.31324 15.13467,33.17504 0.9662,1.89391 1.27,2.14293 1.85497,1.52053 0.38474,-0.40937 2.91519,-4.74466 5.62322,-9.63398 z m 73.42964,-44.70052 c -0.18643,-6.75671 -0.39707,-17.75203 -0.46808,-24.43403 -0.071,-6.68201 -0.28296,-13.70459 -0.47098,-15.60573 l -0.34186,-3.45663 -8.17309,14.79579 c -12.03854,21.79343 -16.55872,30.20585 -16.32948,30.39044 0.48464,0.39025 25.09429,10.56951 25.58249,10.58166 0.35423,0.009 0.42337,-4.2123 0.201,-12.2715 z"
       id="path37"
       transform="scale(0.26458333)" />
    <path
       style="fill:#00ffff;fill-opacity:0;stroke:#000000;stroke-width:2.04079;stroke-linecap:butt;stroke-dasharray:none;stroke-dashoffset:0;paint-order:normal"
       d="m 425.37587,531.59693 c -2.55577,-0.77042 -4.68396,-2.67083 -5.32399,-4.75418 -0.42065,-1.36922 -0.7685,-16.06979 -1.10104,-46.53115 -0.38772,-35.51634 -0.62949,-44.67296 -1.19447,-45.23794 -1.28392,-1.28392 -30.26224,-13.10122 -32.09479,-13.08819 -1.23802,0.009 -0.94678,-0.46467 -20.2415,32.90677 -17.18983,29.73088 -22.78387,38.79055 -24.84201,40.23213 -1.65494,1.15916 -4.31862,1.0324 -5.99372,-0.28523 -1.65182,-1.29933 -13.38178,-24.56639 -31.89808,-63.27172 -6.78279,-14.17831 -12.62996,-26.18578 -12.99373,-26.68326 -0.80035,-1.09455 -1.10456,7.98862 -1.91079,57.05167 -0.6767,41.18072 -1.4071,63.12994 -2.16731,65.12943 -0.3207,0.84351 -0.87162,1.71712 -1.22426,1.94135 -0.89702,0.57038 -13.97559,0.51191 -14.88902,-0.0666 -0.62755,-0.39741 -0.69072,-3.82919 -0.38996,-21.18516 0.1974,-11.391 0.72091,-44.76614 1.16337,-74.16697 0.86623,-57.55957 1.36884,-71.71821 2.63267,-74.16218 0.43043,-0.83236 1.79496,-2.42799 3.0323,-3.54585 4.91315,-4.43874 23.58542,-15.59649 25.62815,-15.31429 0.6413,0.0886 1.99175,1.53657 3.32489,3.56498 1.76908,2.69171 32.08563,61.74638 36.15303,70.42375 0.52201,1.11367 1.1241,2.02485 1.33796,2.02485 0.21387,0 1.68615,-1.76162 3.27176,-3.91471 11.55378,-15.68888 68.20547,-91.17612 74.46089,-99.21766 9.59803,-12.33853 11.8058,-14.57892 14.3667,-14.57892 6.22151,0 7.2514,4.4565 10.16993,44.00675 3.58386,48.56645 11.42633,165.85784 11.96448,178.93991 0.33874,8.23433 0.29429,8.90359 -0.63662,9.58429 -0.78557,0.57442 -4.02663,0.72182 -15.07154,0.68539 -7.73891,-0.0255 -14.7289,-0.24481 -15.5333,-0.4873 z m 11.47115,-18.90486 -0.44875,-1.88986 -0.0553,2.40282 c -0.0344,1.4935 0.13547,2.2087 0.44875,1.88987 0.29495,-0.30019 0.31788,-1.29689 0.0553,-2.40283 z m -93.5558,-62.17978 c 2.15948,-3.90052 3.85251,-7.16568 3.76229,-7.25591 -0.0902,-0.0902 -1.22307,0.674 -2.51743,1.69827 -1.98004,1.56686 -2.7862,1.8623 -5.08162,1.8623 -2.60259,0 -2.86245,-0.13857 -5.6423,-3.0086 -1.96724,-2.03106 -2.78941,-2.61587 -2.53042,-1.79988 0.78049,2.45913 7.22433,15.60747 7.64619,15.60168 0.24033,-0.003 2.20381,-3.19734 4.36329,-7.09786 z m 74.39899,-47.29712 c -0.16901,-6.75625 -0.45471,-18.29789 -0.63487,-25.6481 -0.18017,-7.35021 -0.48494,-13.36401 -0.67726,-13.36401 -0.19232,0 -1.65194,2.36907 -3.2436,5.26461 -10.3881,18.89791 -19.031,34.77966 -19.27916,35.42635 -0.29148,0.75956 1.39448,1.54966 17.32426,8.11879 3.26676,1.34715 6.13719,2.45771 6.37874,2.46791 0.24156,0.0102 0.3009,-5.5093 0.13189,-12.26555 z"
       id="path38"
       transform="scale(0.26458333)" />
    <path
       style="fill:#4df6ff;fill-opacity:1;stroke:#000000;stroke-width:4.68661423;stroke-linecap:butt;stroke-dasharray:none;stroke-dashoffset:0;paint-order:normal"
       d="m 425.21854,532.28297 c -0.59395,-0.1443 -1.86986,-0.85761 -2.83535,-1.58516 -3.56378,-2.68546 -3.39871,-0.99462 -3.96314,-40.59565 -0.28218,-19.79766 -0.65631,-40.20208 -0.83141,-45.34315 l -0.31836,-9.3474 -3.04534,-1.36265 c -4.6309,-2.07211 -22.65625,-9.38905 -25.81492,-10.47892 -2.60386,-0.89844 -2.84453,-0.90261 -3.58854,-0.0622 -0.85201,0.96236 -4.92501,7.8493 -22.96776,38.83561 -18.73855,32.18125 -20.09215,34.14985 -23.48117,34.14985 -3.23771,0 -4.42462,-0.9395 -7.07265,-5.59842 -3.1421,-5.52815 -16.17914,-31.8588 -29.84467,-60.27671 -5.78381,-12.02761 -10.71738,-22.07993 -10.96349,-22.33849 -0.8707,-0.91473 -1.08753,4.71999 -1.89849,49.3365 -0.99454,54.71697 -1.50808,67.47274 -2.82474,70.16409 l -0.93958,1.92057 -7.16061,0.15071 c -4.32911,0.0911 -7.5852,-0.0765 -8.23439,-0.42397 -1.02224,-0.54709 -1.07381,-1.15042 -1.0743,-12.56978 -7.5e-4,-17.44204 1.51369,-110.29941 2.15945,-132.40621 0.30363,-10.39423 0.78091,-20.30268 1.06062,-22.01877 0.63258,-3.88102 1.81328,-5.56416 6.21577,-8.8608 7.00912,-5.24853 21.55895,-13.66713 23.62084,-13.66713 1.37744,0 3.52599,2.88227 7.04381,9.4493 4.40864,8.22997 23.09127,44.56259 29.27041,56.92297 l 4.70245,9.40648 1.22276,-1.57706 c 0.67252,-0.86739 10.04206,-13.3617 20.8212,-27.76513 65.48017,-87.49673 65.89163,-88.01349 70.07945,-88.01349 6.14572,0 7.57078,4.62631 9.81318,31.85764 2.90485,35.27595 12.25863,174.58633 12.80111,190.65306 l 0.33887,10.03641 -1.28175,0.89778 c -1.12279,0.78642 -3.05833,0.89 -15.60555,0.83514 -7.87808,-0.0344 -14.80975,-0.1807 -15.40371,-0.32499 z m -8.57081,-139.05706 c -0.20336,-11.65639 -0.51656,-22.35547 -0.696,-23.77575 -0.28449,-2.25172 -0.41183,-2.45911 -0.99463,-1.61988 -2.29437,3.30385 -20.23258,37.09652 -19.8749,37.44107 0.49661,0.47839 20.69162,9.06017 21.44615,9.11345 0.29031,0.0205 0.33883,-8.5801 0.11938,-21.15889 z"
       id="path39"
       sodipodi:nodetypes="sssscsssssssssscssssssssscssssscssssssssss"
       transform="scale(0.26458333)" />
    <path
       style="fill:#00ffff;fill-opacity:0;stroke:#000000;stroke-width:2.04079;stroke-linecap:butt;stroke-dasharray:none;stroke-dashoffset:0;paint-order:normal"
       d="m 422.66285,531.62692 c -1.37343,-0.87101 -2.76661,-2.08714 -3.09595,-2.70253 -1.12118,-2.09494 -1.5884,-13.22575 -2.18859,-52.13966 -0.3298,-21.38242 -0.72146,-39.38343 -0.87037,-40.00224 -0.19132,-0.79507 -1.48774,-1.63983 -4.41943,-2.87973 -8.3135,-3.51601 -25.42712,-10.3041 -25.97794,-10.3041 -0.75093,0 -0.73119,-0.0324 -18.93492,31.04811 -19.50066,33.29481 -21.84868,37.11536 -24.61342,40.04936 -1.98233,2.10368 -2.45241,2.3371 -4.70666,2.3371 -2.13597,0 -2.77881,-0.27442 -4.36987,-1.8655 -2.06468,-2.06467 -13.35383,-24.20892 -31.39343,-61.57981 -5.87762,-12.17609 -10.76921,-22.2396 -10.87019,-22.36334 -0.10099,-0.12374 -0.32186,-0.0867 -0.49083,0.0822 -0.33089,0.3309 -0.93459,22.64874 -1.84422,68.17772 -0.69533,34.80302 -1.29133,45.51909 -2.71002,48.72627 l -1.01738,2.29995 h -7.46965 c -6.10423,0 -7.70504,-0.16486 -8.75728,-0.90187 l -1.28761,-0.90188 0.35187,-38.11024 c 0.63769,-69.06535 1.97306,-123.77616 3.15571,-129.29066 0.80719,-3.76377 3.66924,-6.6492 12.0813,-12.18 9.78763,-6.43521 16.85071,-10.04721 18.72632,-9.57646 2.57991,0.64752 5.01954,4.98487 27.07264,48.13174 7.28315,14.24948 13.43775,25.96208 13.67689,26.02801 0.23914,0.0659 14.64924,-18.87283 32.02246,-42.08615 40.05687,-53.5222 48.44594,-64.45069 53.45812,-69.64017 3.88084,-4.01812 4.15482,-4.1951 6.49436,-4.1951 7.13737,0 8.39917,5.15115 11.57324,47.24651 2.89495,38.39356 9.85969,142.57821 11.06352,165.49775 0.30417,5.79107 0.6711,12.78405 0.8154,15.53995 l 0.26235,5.01072 -1.74146,1.06181 c -1.62009,0.9878 -2.77843,1.06195 -16.61964,1.06383 l -14.87818,0.002 z m -7.19146,-154.98055 c -0.32603,-6.49652 -0.44675,-7.15352 -1.14097,-6.20954 -1.81145,2.46315 -17.99974,33.14465 -17.99974,34.11471 0,0.54728 4.73867,2.76266 14.57892,6.81581 l 4.58966,1.89046 0.16837,-14.6731 c 0.0926,-8.07021 0.004,-17.94246 -0.19624,-21.93834 z"
       id="path40"
       sodipodi:nodetypes="sssssssssssscsscsscsssssssssssscsscscssscsc"
       transform="scale(0.26458333)" />
    <path
       style="fill:#00ffff;fill-opacity:0;stroke:#000000;stroke-width:2.04079;stroke-linecap:butt;stroke-dasharray:none;stroke-dashoffset:0;paint-order:normal"
       d="m 422.15594,532.02499 c -1.36354,-0.94904 -2.76152,-2.17765 -3.10662,-2.73026 -1.11246,-1.78133 -1.61849,-11.77477 -2.19063,-43.26286 -0.30826,-16.96505 -0.706,-35.04632 -0.88386,-40.18061 l -0.3234,-9.33506 -2.5059,-1.26005 c -3.51574,-1.76783 -25.68212,-10.579 -26.59333,-10.57088 -0.96791,0.009 -0.77849,-0.29467 -15.84509,25.37144 -19.75704,33.65633 -24.54019,41.43242 -27.43128,44.59573 -2.55634,2.79704 -2.78499,2.92075 -5.39862,2.92075 -2.45812,0 -2.92206,-0.20344 -4.67047,-2.04811 -1.07431,-1.13345 -4.52206,-6.98108 -7.72022,-13.09403 -5.71505,-10.92374 -32.44817,-65.42385 -33.10227,-67.48472 -0.58749,-1.85101 -1.34582,-1.15857 -1.34472,1.22788 0.003,7.10104 -1.70357,77.95204 -2.1691,90.03834 -0.59489,15.4448 -1.03055,19.7023 -2.33579,22.82618 l -0.84067,2.01198 -7.72198,-0.002 c -6.72945,-0.002 -7.94616,-0.1387 -9.46608,-1.06544 l -1.7441,-1.06341 0.27345,-20.39798 c 0.1504,-11.21889 0.51272,-38.13567 0.80516,-59.81506 0.56737,-42.06044 1.33616,-71.64777 2.12817,-81.90372 0.54422,-7.04719 1.12621,-8.60651 4.39695,-11.78065 4.75821,-4.61769 20.71826,-14.49375 25.43833,-15.74121 2.4728,-0.65354 2.60607,-0.62738 4.10105,0.80489 2.20598,2.11347 5.84637,8.70209 20.33675,36.80674 17.08065,33.12861 18.61818,35.97948 19.20783,35.61505 0.27778,-0.17168 0.50506,-0.56661 0.50506,-0.87763 0,-0.31102 1.54045,-2.54426 3.42323,-4.96277 1.88279,-2.41849 17.95625,-23.71434 35.7188,-47.32409 34.53731,-45.90655 40.52956,-53.63015 45.61686,-58.79704 3.01214,-3.05927 3.4221,-3.29837 5.65548,-3.29837 8.66955,0 9.51392,4.0532 14.0606,67.49501 4.83069,67.40486 9.94586,147.8496 10.14099,159.48457 l 0.12555,7.48582 -1.88144,1.01855 c -1.71636,0.92919 -3.21057,1.01856 -17.03049,1.01856 H 424.63509 Z M 414.68932,392.011 c 0,-10.8397 -0.18223,-19.70635 -0.40497,-19.70367 -0.38347,0.005 -4.98738,8.43931 -13.59156,24.90072 l -3.84536,7.35689 8.246,3.56021 c 4.5353,1.95812 8.54972,3.5679 8.92094,3.5773 0.52795,0.0134 0.67495,-4.27548 0.67495,-19.69145 z"
       id="path41"
       sodipodi:nodetypes="sssscscsssssscssccscssssssssssssssscsscsscscsss"
       transform="scale(0.26458333)" />
    <path
       style="fill:#00ffff;fill-opacity:0;stroke:#fdff6b;stroke-width:0.64;stroke-linecap:butt;stroke-dasharray:none;stroke-dashoffset:0;paint-order:normal;stroke-opacity:1"
       d="m 111.49238,140.89646 c -0.51134,-0.4042 -0.76308,-0.72477 -0.86944,-1.1072 -0.20825,-0.74881 -0.4021,-5.8592 -0.57858,-15.25332 -0.0827,-4.40023 -0.1829,-8.20414 -0.22275,-8.45314 -0.0678,-0.42344 -0.17153,-0.49449 -1.60394,-1.09822 -2.5292,-1.06599 -5.55912,-2.23496 -5.79293,-2.23496 -0.30607,0 -0.30318,-0.005 -4.809234,7.64325 -4.755338,8.07092 -5.987397,10.04594 -6.788285,10.8818 -0.559948,0.58439 -0.637019,0.61879 -1.386525,0.61879 -1.377249,0 -1.528787,-0.23609 -6.281468,-9.78622 -1.837867,-3.69304 -3.885779,-7.85286 -4.550918,-9.24403 -0.665136,-1.39118 -1.244594,-2.53231 -1.287687,-2.53585 -0.04309,-0.004 -0.158094,3.70626 -0.255561,8.24399 -0.353158,16.44172 -0.52713,20.17156 -1.000205,21.44383 l -0.247065,0.66444 h -2.280994 c -2.030706,0 -2.326449,-0.0308 -2.695223,-0.28043 l -0.414224,-0.28043 0.09681,-8.00571 c 0.25317,-20.93522 0.524875,-32.94735 0.802135,-35.46253 0.154152,-1.398376 0.467627,-2.065758 1.354122,-2.882902 1.50418,-1.386504 6.211305,-4.162034 7.058548,-4.162034 0.97812,0 1.274355,0.496367 7.588391,12.714936 2.96364,5.73508 3.447549,6.6129 3.56975,6.47562 0.05785,-0.065 4.054959,-5.35771 8.882475,-11.761604 C 110.54228,82.757374 111.70141,80.945142 113.19742,79.685437 l 0.89966,-0.750038 0.34246,-0.205367 c 0.71161,-0.426749 1.64334,-0.264245 2.19932,0.678934 0.81988,1.390859 1.23465,4.40246 1.68833,9.910889 0.93969,11.409475 3.2848,47.617445 3.28759,50.759575 l 7.9e-4,0.82845 -0.60717,0.27561 c -0.55391,0.25143 -0.96637,0.27588 -4.7017,0.27875 l -4.09452,0.003 z m -1.91315,-35.04079 c 0.0196,-1.59075 -0.0125,-3.69587 -0.0714,-4.67807 l -0.10719,-1.785801 -0.52545,0.928621 c -1.39308,2.46195 -3.52552,6.64957 -3.43316,6.74193 0.13065,0.13065 3.76515,1.67351 3.95861,1.68045 0.0896,0.003 0.15621,-1.07373 0.17863,-2.88713 z"
       id="path42"
       sodipodi:nodetypes="sssssssssssssscsscsssssssscsssccsscssscssss" />
  </g>
</svg>
